<svg width="249" height="48" viewBox="0 0 249 48" fill="none" xmlns="http://www.w3.org/2000/svg">
<path d="M140.664 43.9944C144.522 43.9334 148.466 43.376 152.497 42.3222V5.91744H145.44V17.3688C143.818 16.6382 142.226 16.2082 140.664 16.079V21.9134C142.552 22.0069 144.144 22.4805 145.44 23.3342V37.2623C143.938 37.7357 142.346 37.9915 140.664 38.0296V43.9944Z" fill="#D6A979"/>
<path fill-rule="evenodd" clip-rule="evenodd" d="M183.682 29.0333C183.682 20.3693 179.439 16.0373 170.953 16.0373C162.2 16.0373 157.823 20.5912 157.823 29.6991C157.823 39.233 162.892 44 173.03 44C176.563 44 179.563 43.7337 182.031 43.2011V37.6085C179.208 38.1411 176.385 38.4075 173.562 38.4075C167.775 38.4075 164.881 36.4368 164.881 32.4953H183.443C183.602 31.3413 183.682 30.1873 183.682 29.0333ZM176.811 27.5952H164.881C165.2 23.5828 167.224 21.5766 170.953 21.5766C174.858 21.5766 176.811 23.5118 176.811 27.3822V27.5952Z" fill="#D6A979"/>
<path d="M213.243 44V16.0373H196.039V14.466C196.039 11.217 198.045 9.59254 202.058 9.59254C205.005 9.59254 207.846 10.2139 210.58 11.4567V5.86418C207.562 4.62139 204.552 4 201.552 4C193.172 4 188.982 7.5597 188.982 14.6791V44H196.039V21.6298H206.186V44H213.243Z" fill="#D6A979"/>
<path d="M140.662 16.0776C140.326 16.0498 139.992 16.0359 139.659 16.0359C130.818 16.0359 126.397 20.5099 126.397 29.458C126.397 39.1518 130.915 43.9986 139.952 43.9986C140.188 43.9986 140.425 43.9968 140.662 43.993V38.0282C140.515 38.0316 140.367 38.0332 140.218 38.0332C135.656 38.0332 133.374 35.1127 133.374 29.2716C133.374 24.3537 135.567 21.8948 139.952 21.8948C140.193 21.8948 140.43 21.9005 140.662 21.912V16.0776Z" fill="white"/>
<path d="M44 16.0359V43.9986H51.0573V21.6285H59.4461V16.0359H51.0573C51.0573 12.0945 53.0635 10.1238 57.0759 10.1238C59.1354 10.1238 61.0439 10.4789 62.8016 11.189V5.5965C60.9374 4.88633 58.8602 4.53125 56.5699 4.53125C48.19 4.53125 44 8.36614 44 16.0359Z" fill="white"/>
<path d="M88.9268 43.9986V16.0359H81.8695V35.5565C79.4905 37.3852 77.1558 38.2996 74.8655 38.2996C72.1669 38.2996 70.8176 36.755 70.8176 33.6657V16.0359H63.7603V33.8522C63.7603 40.6165 66.6187 43.9986 72.3356 43.9986C75.9396 43.9986 79.3484 42.8091 82.5619 40.4301L83.4141 43.9986H88.9268Z" fill="white"/>
<path d="M95.6112 16.0359V43.9986H102.668V24.478C104.852 22.6493 107.089 21.735 109.379 21.735C112.451 21.735 113.987 23.2796 113.987 26.3688V43.9986H121.044V26.3688C121.044 19.4802 117.733 16.0359 111.111 16.0359C107.684 16.0359 104.63 17.403 101.949 20.1371L101.071 16.0359H95.6112Z" fill="white"/>
<path fill-rule="evenodd" clip-rule="evenodd" d="M20.5 8.09816C20.3929 8.07227 20.2862 8.04414 20.18 8.01375L17.1839 7.15633C16.1057 6.84774 14.9475 7.00008 13.9866 7.57723C11.678 8.962 11.3382 12.172 13.3069 14.0098L13.6956 14.3731C13.9026 14.5655 14.1741 14.6729 14.4553 14.6729H20.5V8.09816ZM20.5 17.6729H14.5178C14.2405 17.6729 13.9729 17.7296 13.7288 17.8341C13.1897 18.0655 12.7659 18.5304 12.596 19.1222L8.25613 34.2608C7.4866 36.9425 8.48855 39.8175 10.7581 41.4415C11.8772 42.2423 13.219 42.6729 14.596 42.6729H20.5V17.6729Z" fill="white"/>
<path fill-rule="evenodd" clip-rule="evenodd" d="M20.5 42.6727V17.6727H27.2327C28.1253 17.6727 28.9104 18.2635 29.1565 19.1209L33.5003 34.2674C34.2678 36.9451 33.2678 39.8172 31.0042 41.4393C29.885 42.241 28.5432 42.6727 27.1663 42.6727H20.5ZM20.5 14.6727V8.24282C20.8643 8.1913 21.2259 8.11453 21.5823 8.0125L24.5725 7.15703C25.6507 6.84746 26.8089 6.9998 27.7698 7.57695C28.6311 8.09355 29.219 8.86406 29.5139 9.72246C30.01 11.1658 29.6819 12.8562 28.4495 14.0076L28.0589 14.3728C27.9554 14.4695 27.8343 14.5447 27.7054 14.5955C27.5764 14.6463 27.4397 14.6727 27.2991 14.6727H20.5Z" fill="#D6A979"/>
</svg>
